:SAMPLES-PER-SECOND 30
:FULLY-SPECIFIED
:DEGREES
291
root  65.0626 36.0151 -17.2232 40.7846 6.93964 0.718216
RightUpLeg  -77.1736 -16.5837 26.385
RightLeg  39.9787 -4.76622 -4.55363
RightFoot  -7.41457 0.37221 -12.2542
RightToes  0.00048216 0.542163 -0.142577
Spine  70.6807 -4.48665 6.54967
Spine1  3.47569 2.03994 -6.72936
HEad  -44.4601 -5.80234 6.2761
LeftShoulder1  6.56491 -30.7709 -11.7932
LeftArm  -78.0816 -64.7276 27.7899
LeftForeArm  -0.336135 -2.82294 1.87544
LeftHand  -0.25398 0.0180481 5.50724
RightShoulder  1.87239 13.0329 3.31298
RightArm  -69.1648 70.7936 -10.9545
RightForeArm  -32.333 1.27707 2.84624
RightHand  -2.59138 12.602 -17.1327
LeftUpLeg  -78.9765 18.3359 -27.9656
LeftLeg  39.0417 2.04448 2.16564
LeftFoot  -3.53379 -0.561002 8.52377
LeftToes  1.06248e-005 4.65856e-005 -8.18499e-006
292
root  65.1796 35.9259 -17.0343 41.3802 6.8726 0.646774
RightUpLeg  -77.9103 -16.1712 25.9632
RightLeg  40.9876 -4.92793 -4.86229
RightFoot  -7.67775 0.328756 -11.8392
RightToes  0.00048216 0.542163 -0.142577
Spine  70.9266 -4.36367 6.27903
Spine1  3.90813 1.90204 -6.48376
HEad  -44.5184 -5.8926 6.74642
LeftShoulder1  6.74269 -30.3133 -12.6626
LeftArm  -79.5357 -64.893 27.5266
LeftForeArm  -0.891965 -5.94254 1.82899
LeftHand  -0.25398 0.0180481 5.50724
RightShoulder  1.93414 12.8386 3.89255
RightArm  -68.1744 70.0917 -7.10893
RightForeArm  -33.4673 6.18278 3.13682
RightHand  -2.55343 13.2013 -16.3218
LeftUpLeg  -79.7251 18.1706 -28.2153
LeftLeg  39.9089 2.03593 2.21717
LeftFoot  -4.20762 -0.542809 9.09327
LeftToes  1.06248e-005 4.65856e-005 -8.18499e-006
293
root  65.2978 35.8933 -16.8772 41.7315 7.05438 0.595047
RightUpLeg  -78.3161 -16.1112 25.6485
RightLeg  41.6236 -5.05078 -5.08525
RightFoot  -7.84639 0.292141 -11.2599
RightToes  0.00048216 0.542163 -0.142577
Spine  71.1509 -4.34843 6.28179
Spine1  4.38762 1.7587 -5.93698
HEad  -44.6649 -6.05768 7.22713
LeftShoulder1  6.97538 -29.5711 -13.9345
LeftArm  -80.9836 -65.2567 26.1797
LeftForeArm  -1.10969 -10.1812 1.552
LeftHand  -0.25398 0.0180481 5.50724
RightShoulder  2.08507 12.6955 5.0618
RightArm  -66.5343 68.944 -5.96818
RightForeArm  -31.9943 11.0889 4.2308
RightHand  -2.0642 12.4166 -13.8946
LeftUpLeg  -79.9998 17.9788 -28.3346
LeftLeg  40.3682 2.05209 2.26251
LeftFoot  -4.69359 -0.506952 9.19358
LeftToes  1.06248e-005 4.65856e-005 -8.18499e-006
294
root  65.4108 35.9091 -16.75 42.0179 7.1604 0.501099
RightUpLeg  -78.3915 -15.8722 25.0864
RightLeg  41.8509 -5.33603 -5.39502
RightFoot  -7.78492 0.272703 -10.4381
RightToes  0.00048216 0.542163 -0.142577
Spine  71.2848 -4.30521 6.38611
Spine1  4.74764 1.68974 -5.36809
HEad  -44.906 -6.35422 7.6546
LeftShoulder1  7.34135 -28.9161 -15.6374
LeftArm  -83.0941 -65.5933 25.0721
LeftForeArm  0.0190448 -13.945 0.569219
LeftHand  -0.25398 0.0180481 5.50724
RightShoulder  2.21117 12.6546 5.97836
RightArm  -65.347 67.9489 -7.061
RightForeArm  -30.0828 14.3938 5.12141
RightHand  -1.75266 11.7501 -12.3364
LeftUpLeg  -80.1196 18.0692 -28.6282
LeftLeg  40.3632 1.67725 1.92103
LeftFoot  -4.84744 -0.48406 9.02891
LeftToes  1.06248e-005 4.65856e-005 -8.18499e-006
295
root  65.5249 35.9368 -16.6598 42.4507 6.87715 0.371185
RightUpLeg  -78.4122 -15.2728 24.36
RightLeg  41.7262 -5.59671 -5.61826
RightFoot  -7.53556 0.272738 -9.70512
RightToes  0.00048216 0.542163 -0.142577
Spine  71.1066 -4.11409 6.30155
Spine1  4.97219 1.67413 -5.09928
HEad  -45.1247 -6.52906 7.99884
LeftShoulder1  7.71781 -28.4249 -17.2965
LeftArm  -84.7242 -65.8651 25.0209
LeftForeArm  1.63375 -16.1452 -0.70516
LeftHand  -0.25398 0.0180481 5.50724
RightShoulder  2.25872 12.698 6.26728
RightArm  -64.9078 67.2273 -8.07527
RightForeArm  -29.5269 16.2122 5.43932
RightHand  -1.64243 11.5254 -11.7366
LeftUpLeg  -80.4214 18.5087 -29.2907
LeftLeg  40.004 0.787995 1.10028
LeftFoot  -4.98489 -0.481971 9.20216
LeftToes  1.06248e-005 4.65856e-005 -8.18499e-006
296
root  65.6446 35.9715 -16.6093 42.8795 6.3868 0.299011
RightUpLeg  -78.4773 -14.8312 23.8477
RightLeg  41.3855 -5.48278 -5.44827
RightFoot  -7.2288 0.285321 -9.27419
RightToes  0.00048216 0.542163 -0.142577
Spine  70.7794 -3.89507 6.10784
Spine1  4.85625 1.62019 -5.11858
HEad  -45.1063 -6.53405 8.27519
LeftShoulder1  8.11288 -28.3138 -18.7216
LeftArm  -84.4463 -66.0084 25.277
LeftForeArm  2.27695 -17.1481 -1.57164
LeftHand  -0.25398 0.0180481 5.50724
RightShoulder  2.3619 12.8838 6.79468
RightArm  -64.0774 66.4037 -8.06199
RightForeArm  -30.1239 17.8558 5.6676
RightHand  -1.49578 11.189 -10.9417
LeftUpLeg  -80.7211 19.0205 -30.0843
LeftLeg  39.4888 -0.225932 0.186531
LeftFoot  -5.17913 -0.48048 9.48321
LeftToes  1.06248e-005 4.65856e-005 -8.18499e-006
297
root  65.7732 36.0322 -16.5958 42.9682 6.04839 0.281647
RightUpLeg  -78.3519 -14.9308 23.6594
RightLeg  40.9322 -5.02636 -4.9466
RightFoot  -6.88904 0.306065 -9.04124
RightToes  0.00048216 0.542163 -0.142577
Spine  70.5807 -3.86348 6.04787
Spine1  4.59781 1.47106 -5.18912
HEad  -44.9984 -6.53362 8.4305
LeftShoulder1  8.45529 -28.378 -19.8143
LeftArm  -83.7436 -66.0378 25.0049
LeftForeArm  2.39902 -17.8886 -2.17075
LeftHand  -0.25398 0.0180481 5.50724
RightShoulder  2.56515 13.0576 8.00333
RightArm  -62.4092 65.6424 -7.81649
RightForeArm  -30.3917 20.0449 5.95464
RightHand  -1.29561 10.7084 -9.82074
LeftUpLeg  -80.6512 19.3846 -30.6731
LeftLeg  39.0075 -0.805948 -0.318491
LeftFoot  -5.15665 -0.481768 9.47179
LeftToes  1.06248e-005 4.65856e-005 -8.18499e-006
298
root  65.9127 36.1233 -16.6187 42.6402 5.89827 0.216797
RightUpLeg  -77.8193 -15.3075 23.5416
RightLeg  40.3158 -4.63995 -4.4962
RightFoot  -6.45791 0.338615 -8.93523
RightToes  0.00048216 0.542163 -0.142577
Spine  70.5372 -4.01082 6.09486
Spine1  4.57079 1.28601 -5.16934
HEad  -45.0181 -6.60254 8.42728
LeftShoulder1  8.59543 -28.0595 -20.5796
LeftArm  -83.9812 -66.1515 24.2347
LeftForeArm  2.75452 -18.8508 -2.70041
LeftHand  -0.25398 0.0180481 5.50724
RightShoulder  2.74544 13.0292 9.25146
RightArm  -60.9421 65.3503 -7.68752
RightForeArm  -28.9097 22.3184 6.16421
RightHand  -1.10857 10.2373 -8.71559
LeftUpLeg  -80.1508 19.6639 -31.0038
LeftLeg  38.5481 -0.859368 -0.355198
LeftFoot  -4.89953 -0.503727 9.45293
LeftToes  1.06248e-005 4.65856e-005 -8.18499e-006
299
root  66.056 36.2365 -16.6774 42.0622 5.69029 0.056488
RightUpLeg  -76.866 -15.5242 23.2262
RightLeg  39.418 -4.54958 -4.28162
RightFoot  -5.89846 0.387222 -8.95635
RightToes  0.00048216 0.542163 -0.142577
Spine  70.4753 -4.09531 6.0666
Spine1  4.69473 1.20709 -5.10381
HEad  -44.973 -6.72643 8.45109
LeftShoulder1  8.75378 -27.7718 -21.388
LeftArm  -84.1035 -65.9527 22.7833
LeftForeArm  3.9775 -20.115 -3.31351
LeftHand  -0.25398 0.0180481 5.50724
RightShoulder  2.87074 13.0319 10.0921
RightArm  -59.7779 65.0663 -6.99837
RightForeArm  -25.7285 24.2583 6.36626
RightHand  -0.895792 9.52696 -7.44485
LeftUpLeg  -79.3653 20.0702 -31.2078
LeftLeg  37.8787 -0.821963 -0.308617
LeftFoot  -4.68066 -0.543731 9.80418
LeftToes  1.06248e-005 4.65856e-005 -8.18499e-006
300
root  66.1921 36.3722 -16.7678 41.3089 5.25838 -0.150787
RightUpLeg  -75.5418 -15.4954 22.6282
RightLeg  38.2483 -4.54299 -4.10915
RightFoot  -5.18433 0.450864 -9.00736
RightToes  0.00048216 0.542163 -0.142577
Spine  70.3069 -3.97476 5.89958
Spine1  4.71458 1.24343 -5.05706
HEad  -44.6321 -6.81488 8.69266
LeftShoulder1  9.03506 -27.9915 -22.1197
LeftArm  -82.6606 -65.0993 20.2624
LeftForeArm  5.75063 -21.4924 -3.94062
LeftHand  -0.25398 0.0180481 5.50724
RightShoulder  2.97072 13.2674 10.483
RightArm  -58.0123 64.2203 -5.24371
RightForeArm  -22.2837 25.9767 6.63672
RightHand  -0.68089 8.5787 -6.13096
LeftUpLeg  -78.3575 20.7384 -31.3888
LeftLeg  36.8671 -0.950553 -0.391572
LeftFoot  -4.5308 -0.588528 10.3206
LeftToes  1.06248e-005 4.65856e-005 -8.18499e-006
301
root  66.3226 36.5421 -16.8872 40.2739 4.72243 -0.290527
RightUpLeg  -73.8595 -15.511 21.81
RightLeg  36.9062 -4.34747 -3.76826
RightFoot  -4.28977 0.533091 -9.09213
RightToes  0.00048216 0.542163 -0.142577
Spine  70.0341 -3.85871 5.75561
Spine1  4.66558 1.26364 -5.11471
HEad  -44.0445 -6.88466 9.05733
LeftShoulder1  9.27904 -28.4215 -22.5067
LeftArm  -79.7154 -63.9632 16.7339
LeftForeArm  7.19554 -22.6775 -4.38337
LeftHand  -0.25398 0.0180481 5.50724
RightShoulder  3.10467 13.6811 10.8721
RightArm  -55.3708 63.1236 -3.04383
RightForeArm  -20.3236 27.4629 6.91278
RightHand  -0.592161 7.90557 -5.63197
LeftUpLeg  -76.9808 21.5863 -31.5746
LeftLeg  35.5752 -1.05328 -0.441882
LeftFoot  -4.21808 -0.642318 10.6955
LeftToes  1.06248e-005 4.65856e-005 -8.18499e-006
302
root  66.4586 36.7453 -17.0345 38.9171 4.28273 -0.289413
RightUpLeg  -71.8906 -15.8431 20.925
RightLeg  35.4557 -3.98996 -3.31212
RightFoot  -3.27233 0.635961 -9.2979
RightToes  0.00048216 0.542163 -0.142577
Spine  69.5741 -3.94719 5.76286
Spine1  4.77872 1.14034 -5.15342
HEad  -43.4577 -7.00806 9.24547
LeftShoulder1  9.39721 -28.5391 -22.7791
LeftArm  -76.1787 -63.004 12.5819
LeftForeArm  7.85237 -23.6018 -4.63496
LeftHand  -0.25398 0.0180481 5.50724
RightShoulder  3.25896 14.0267 11.4502
RightArm  -52.3372 62.5366 -0.629576
RightForeArm  -20.5219 28.4783 7.1734
RightHand  -0.649579 7.68746 -6.21442
LeftUpLeg  -75.1404 22.4487 -31.7188
LeftLeg  34.1019 -1.02073 -0.381252
LeftFoot  -3.66867 -0.718897 11.0138
LeftToes  1.06248e-005 4.65856e-005 -8.18499e-006
303
root  66.6047 36.9667 -17.2049 37.3992 3.79568 -0.344009
RightUpLeg  -69.6614 -16.21 20.0703
RightLeg  33.7701 -3.67333 -2.8964
RightFoot  -2.18402 0.735414 -9.34107
RightToes  0.00048216 0.542163 -0.142577
Spine  68.8664 -4.01292 5.9461
Spine1  4.89323 1.20607 -5.25999
HEad  -42.9845 -7.56174 9.40604
LeftShoulder1  9.57716 -28.7226 -23.1855
LeftArm  -71.9212 -61.9972 7.4193
LeftForeArm  7.89449 -24.6001 -4.85337
LeftHand  -0.25398 0.0180481 5.50724
RightShoulder  3.42022 13.996 12.5212
RightArm  -48.6399 62.3038 2.27673
RightForeArm  -22.3183 29.1694 7.42713
RightHand  -0.723867 7.4787 -6.97184
LeftUpLeg  -73.1245 23.4495 -31.7466
LeftLeg  32.4786 -1.08948 -0.389055
LeftFoot  -3.04903 -0.815771 11.4652
LeftToes  1.06248e-005 4.65856e-005 -8.18499e-006
